<?xml version="1.0" encoding="UTF-8"?>
<svg id="Layer_1" data-name="Layer 1" xmlns="http://www.w3.org/2000/svg" viewBox="0 0 719 511.5">
  <defs>
    <style>
      .cls-1 {
        fill: #c1272d;
      }

      .cls-1, .cls-2, .cls-3 {
        stroke-width: 0px;
      }

      .cls-2 {
        fill: #f15a24;
      }

      .cls-3 {
        fill: #f7931e;
      }
    </style>
  </defs>
  <path class="cls-1" d="M328.5,470s-172.29-33.24-182-140c-10-110-30-64-26-104,20,22,14,15,26,33,28.93,43.39,30,72,20-16s-64-95-19-148,37-43,37-43c0,0-40,64-23,82s32,99,32,99c0,0,67-36,55-118l-12-82s48,107,33,149-15.5,69.5-15.5,69.5c0,0,80.5-7.5,76.5-61.5s-41.71-55,.14-93.5,3.86-41.5,3.86-41.5c0,0,21-9,25,9.5s-7,40.5-12,58.5,33.72,52,12.86,107.5-7.86,81.5,29.14,33.5,24-31,25-74,36-51,47-48,17,30,17,30c0,0-51-39-49,4s4,60,0,70-70,59.5-70,59.5c0,0,36,112.5,66,50.5s-16-103,36-139,92-9,92-9c0,0-66-10-81,46s67,131,9,159-153,57-153,57Z"/>
  <path class="cls-2" d="M328.85,450.14s-156.78-30.25-165.61-127.39c-9.1-100.09-27.3-58.24-23.66-94.63,18.2,20.02,12.74,13.65,23.66,30.03,26.32,39.49,27.3,65.51,18.2-14.56-9.1-80.07-58.24-86.44-17.29-134.67,40.95-48.23,33.67-39.13,33.67-39.13,0,0-36.4,58.24-20.93,74.61,15.47,16.38,29.12,90.08,29.12,90.08,0,0,60.96-32.76,50.05-107.37l-10.92-74.61s43.68,97.36,30.03,135.58-14.1,63.24-14.1,63.24c0,0,73.25-6.82,69.61-55.96s-37.95-50.05.13-85.08,3.51-37.76,3.51-37.76c0,0,19.11-8.19,22.75,8.64s-6.37,36.85-10.92,53.23c-4.55,16.38,30.68,47.32,11.7,97.82-18.98,50.5-7.15,74.16,26.52,30.48,33.67-43.68,21.84-28.21,22.75-67.33s32.76-46.41,42.77-43.68,15.47,27.3,15.47,27.3c0,0-46.41-35.49-44.59,3.64,1.82,39.13,3.64,54.6,0,63.69s-63.69,54.14-63.69,54.14c0,0,32.76,102.37,60.06,45.95s-14.56-93.72,32.76-126.48c47.32-32.76,83.71-8.19,83.71-8.19,0,0-60.06-9.1-73.7,41.86-13.65,50.96,60.96,119.2,8.19,144.68-52.78,25.48-139.22,51.87-139.22,51.87Z"/>
  <path class="cls-3" d="M329.66,434.03s-144.22-27.82-152.34-117.19c-8.37-92.08-25.11-53.57-21.76-87.05,16.74,18.42,11.72,12.56,21.76,27.62,24.22,36.32,25.11,60.27,16.74-13.39s-53.57-79.52-15.9-123.88c37.67-44.36,30.97-35.99,30.97-35.99,0,0-33.48,53.57-19.25,68.64,14.23,15.07,26.79,82.87,26.79,82.87,0,0,56.08-30.13,46.04-98.77l-10.04-68.64s40.18,89.56,27.62,124.72c-12.56,35.16-12.97,58.18-12.97,58.18,0,0,67.38-6.28,64.03-51.48s-34.91-46.04.12-78.26c35.04-32.23,3.23-34.74,3.23-34.74,0,0,17.58-7.53,20.93,7.95,3.35,15.49-5.86,33.9-10.04,48.97-4.19,15.07,28.22,43.53,10.76,89.98-17.46,46.46-6.58,68.22,24.39,28.04,30.97-40.18,20.09-25.95,20.93-61.94s30.13-42.69,39.34-40.18c9.21,2.51,14.23,25.11,14.23,25.11,0,0-42.69-32.65-41.02,3.35,1.67,35.99,3.35,50.22,0,58.59s-58.59,49.8-58.59,49.8c0,0,30.13,94.17,55.25,42.27,25.11-51.9-13.39-86.22,30.13-116.35,43.53-30.13,77.01-7.53,77.01-7.53,0,0-55.25-8.37-67.8,38.5-12.56,46.88,56.08,109.65,7.53,133.09-48.55,23.44-128.07,47.71-128.07,47.71Z"/>
</svg>